<svg id="Grupo_3431" data-name="Grupo 3431" xmlns="http://www.w3.org/2000/svg" xmlns:xlink="http://www.w3.org/1999/xlink" width="56.154" height="72.025" viewBox="0 0 56.154 72.025">
  <defs>
    <clipPath id="clip-path">
      <rect id="Rectángulo_1988" data-name="Rectángulo 1988" width="56.154" height="72.025" fill="none"/>
    </clipPath>
  </defs>
  <g id="Grupo_3430" data-name="Grupo 3430" clip-path="url(#clip-path)">
    <path id="Trazado_7103" data-name="Trazado 7103" d="M10.584,22.052a8.74,8.74,0,0,1,.462,1.236,8.883,8.883,0,0,1,.269,1.276,10.167,10.167,0,0,1-2.009.539,13.667,13.667,0,0,1-1.92.127,8.065,8.065,0,0,1-3.2-.59,6.369,6.369,0,0,1-2.308-1.651,7.03,7.03,0,0,1-1.4-2.526A10.226,10.226,0,0,1,0,17.287,10,10,0,0,1,.493,14.1a7.432,7.432,0,0,1,1.429-2.541,6.424,6.424,0,0,1,2.3-1.676,7.631,7.631,0,0,1,3.1-.6,13.242,13.242,0,0,1,1.9.127,8.53,8.53,0,0,1,1.878.539,4.7,4.7,0,0,1-.257,1.256c-.142.408-.3.817-.473,1.232a9.454,9.454,0,0,0-1.329-.362,7.719,7.719,0,0,0-1.376-.109A3.874,3.874,0,0,0,4.5,13.306a6.141,6.141,0,0,0-1.105,3.982q0,5.24,4.445,5.24a7.872,7.872,0,0,0,1.4-.109,9.071,9.071,0,0,0,1.352-.366" transform="translate(0 11.317)" fill="#051619"/>
    <path id="Trazado_7104" data-name="Trazado 7104" d="M10.446,9.466c.3-.042.588-.075.859-.1s.573-.033.9-.033q.429,0,.839.033c.271.02.573.053.9.1L18.777,24.9a12.116,12.116,0,0,1-1.718.131A9.821,9.821,0,0,1,15.47,24.9l-.859-3.094H9.5L8.621,24.9a9.2,9.2,0,0,1-1.483.131A9.714,9.714,0,0,1,5.572,24.9Zm3.436,9.747L12.1,12.73,10.23,19.213Z" transform="translate(6.794 11.386)" fill="#051619"/>
    <path id="Trazado_7105" data-name="Trazado 7105" d="M1.31,17.375c.6-.071,1.232-.133,1.889-.182s1.389-.075,2.191-.075q4.058,0,6.172,2.017t2.115,6.054q0,4.058-2.146,5.968T5.154,33.068q-1.1,0-2.02-.075c-.615-.049-1.223-.111-1.824-.182ZM4.466,30.321c.129.013.293.029.495.042s.442.022.73.022a7.079,7.079,0,0,0,1.833-.226A3.277,3.277,0,0,0,9,29.333a4.16,4.16,0,0,0,.988-1.609,7.755,7.755,0,0,0,.366-2.6,7.786,7.786,0,0,0-.366-2.577A4.156,4.156,0,0,0,9,20.918a3.5,3.5,0,0,0-1.427-.848,5.8,5.8,0,0,0-1.707-.246c-.2,0-.433,0-.7.009s-.5.027-.7.053Z" transform="translate(1.597 20.874)" fill="#051619"/>
    <path id="Trazado_7106" data-name="Trazado 7106" d="M8.053,17.3a9.708,9.708,0,0,1,1.567-.129,10.106,10.106,0,0,1,1.589.129V32.74a9.98,9.98,0,0,1-1.567.129,9.836,9.836,0,0,1-1.589-.129Z" transform="translate(9.819 20.945)" fill="#051619"/>
    <path id="Trazado_7107" data-name="Trazado 7107" d="M7.159,25.132c.269-.042.535-.071.792-.087s.524-.02.795-.02c.244,0,.493.007.755.02s.519.044.79.087v8.007a21.487,21.487,0,0,0,.1,2.244,4.733,4.733,0,0,0,.384,1.547,1.922,1.922,0,0,0,.817.9,2.811,2.811,0,0,0,1.365.291,2.735,2.735,0,0,0,1.349-.291,1.952,1.952,0,0,0,.808-.9,4.845,4.845,0,0,0,.386-1.547c.062-.621.1-1.369.1-2.244V25.132c.286-.042.559-.071.817-.087s.506-.02.752-.02.519.007.781.02.533.044.806.087V33.8a14.682,14.682,0,0,1-.257,2.867,5.626,5.626,0,0,1-.921,2.222,4.366,4.366,0,0,1-1.784,1.427,6.92,6.92,0,0,1-2.832.5,6.928,6.928,0,0,1-2.836-.5,4.373,4.373,0,0,1-1.782-1.427,5.628,5.628,0,0,1-.923-2.222A14.863,14.863,0,0,1,7.159,33.8Z" transform="translate(8.729 30.515)" fill="#051619"/>
    <path id="Trazado_7108" data-name="Trazado 7108" d="M13.688,25.073h8.76a6.6,6.6,0,0,1,.129,1.309,6.813,6.813,0,0,1-.129,1.352H16.822v3.351h4.465a7.152,7.152,0,0,1,.131,1.329,7.052,7.052,0,0,1-.131,1.354H16.822v4.079H22.6a6.769,6.769,0,0,1,.129,1.309,6.983,6.983,0,0,1-.129,1.352H13.688Z" transform="translate(16.69 30.574)" fill="#051619"/>
    <path id="Trazado_7109" data-name="Trazado 7109" d="M12.246,38.644a7.192,7.192,0,0,0,1.212-2.512,11.979,11.979,0,0,0,.4-3.167,12.234,12.234,0,0,0-.4-3.189,7.308,7.308,0,0,0-1.212-2.543,5.558,5.558,0,0,0-2.084-1.673,6.933,6.933,0,0,0-3.005-.6,6.933,6.933,0,0,0-3.005.6,5.558,5.558,0,0,0-2.084,1.673A7.308,7.308,0,0,0,.856,29.775a12.234,12.234,0,0,0-.4,3.189,11.979,11.979,0,0,0,.4,3.167,7.192,7.192,0,0,0,1.212,2.512,5.6,5.6,0,0,0,2.084,1.662,6.933,6.933,0,0,0,3.005.6,8.666,8.666,0,0,0,1.2-.08l4.743.766a5.8,5.8,0,0,0,.344-1.236q.107-.652.149-1.276l-1.516-.235c.058-.067.113-.133.166-.2M3.808,32.964q0-5.323,3.371-5.324a2.717,2.717,0,0,1,2.5,1.332,7.889,7.889,0,0,1,.8,3.993q0,5.326-3.327,5.324-3.349,0-3.349-5.324" transform="translate(0.56 30.432)" fill="#051619"/>
    <path id="Trazado_7110" data-name="Trazado 7110" d="M17.924,11.086c-.036.007-.073.011-.109.016a1.874,1.874,0,0,1-.193.009,2.337,2.337,0,0,1-1.551-.633,5.856,5.856,0,0,1-.788-.948c-.062-.082-.122-.162-.18-.244-.34.013-.664.033-.965.06q-.826.077-1.764.182V24.966c.284.042.561.071.832.084s.528.022.77.022.493-.011.75-.031.513-.047.77-.075V11.934a5.034,5.034,0,0,1,.854-.064,3.293,3.293,0,0,1,1.529.333,6.721,6.721,0,0,1,.044-1.116" transform="translate(15.087 11.324)" fill="#051619"/>
  </g>
</svg>
