<svg xmlns="http://www.w3.org/2000/svg" xmlns:xlink="http://www.w3.org/1999/xlink" width="56.156" height="72.025" viewBox="0 0 56.156 72.025">
  <defs>
    <clipPath id="clip-path">
      <path id="Trazado_7102" data-name="Trazado 7102" d="M33.269,43.408c-.051-.011-.153-.029-.182-.078s0-.153,0-.206c.007-.113.011-.231.02-.344.011-.217.029-.435.044-.652q.05-.662.122-1.321.136-1.3.355-2.594c.036-.215.073-.431.111-.644a1.832,1.832,0,0,1,.131-.486A.451.451,0,0,1,33.928,37a.091.091,0,0,1,.155.027,7.9,7.9,0,0,1,.446,1.918,16.119,16.119,0,0,1,.042,2.268,1.532,1.532,0,0,1-.277.937.217.217,0,0,0-.04.06.092.092,0,0,1-.084.06h-.226c-.158,0-.273.222-.138.333a.45.45,0,0,1,.029.65.591.591,0,0,1-.355.166c-.027,0-.055,0-.082,0a.84.84,0,0,1-.129-.011M28.417,0a3.8,3.8,0,0,0-1.068.262c-.036.013-.61.3-.617.3a27.726,27.726,0,0,0-4.277,2.814q-1.119.876-2.155,1.858c-.342.322-.672.652-1,.988-.162.169-.313.344-.482.508a.719.719,0,0,1-.348.193,1.35,1.35,0,0,0-.619.129,1.488,1.488,0,0,0-.391.315,3.979,3.979,0,0,1-.648.688c-.344.229-.735.055-1.1-.033a1.436,1.436,0,0,0-.692-.031,1.256,1.256,0,0,0-.519.264c-.717.586-.679,1.558-.959,2.359-.3.846-1.139,1.241-1.824,1.727a11.065,11.065,0,0,0-1.167.943,4.779,4.779,0,0,0-.9,1.03,1.682,1.682,0,0,0-.235,1.236,1.311,1.311,0,0,0,.706.874c.033.016.069.027.1.04a1.2,1.2,0,0,0,.153,1.258,2.954,2.954,0,0,0,1.942.819c1.5.213,3.056-.016,4.527.408a3.605,3.605,0,0,1,1.7,1c.475.515.8,1.154,1.323,1.633a2.077,2.077,0,0,0,1.567.561,1.15,1.15,0,0,0,1.081-.881,6.334,6.334,0,0,0-.06-1.358c0-.071,0-.144,0-.217a.042.042,0,0,1,.042-.04,1.14,1.14,0,0,1,.9.464c.275.386,1.314,1.4,2.035,1.332l.016,0c.016.373.042.75.075,1.121.067.7.166,1.4.293,2.088a.039.039,0,0,1-.036.047,21,21,0,0,1-2.508.078.044.044,0,0,1-.038-.029A5.747,5.747,0,0,1,23,23.527l.007-.024a.192.192,0,0,0,.007-.193.315.315,0,0,1-.027-.089c0-.047,0-.1,0-.144a.185.185,0,0,0-.02-.08c.107,0,.213-.009.32-.009a.2.2,0,0,0,.186-.262l.007-.435a.2.2,0,0,0-.186-.255c-.419,0-.839-.011-1.256-.018a.193.193,0,0,0-.189.144,6.262,6.262,0,0,0,.058,2.361,4.946,4.946,0,0,0,.149.559c.044.131.115.164.244.193.109.02.215.042.324.067.2.044.406.089.61.131.1.02.2.042.3.064a1.389,1.389,0,0,1,.26.064c.06.031.062.084.067.144a2.45,2.45,0,0,0,.058.817.044.044,0,0,1-.033.062,11.107,11.107,0,0,0-1.116.171l-.047-.038a1.161,1.161,0,0,0-.22-.688.723.723,0,0,0-.781-.249.564.564,0,0,0-.193.12.42.42,0,0,0-.082.308c-.016.2-.022.4-.024.6a11.139,11.139,0,0,0,.047,1.218c.018.182.264.422.561-.226l1.729.433a6.989,6.989,0,0,1-.126,1.074c-.013.075-.022.2-.08.251a.8.8,0,0,1-.277.109l-.77.253a.2.2,0,0,0-.14.24c.062.206.12.413.175.619.051.182.082.408.262.506a.771.771,0,0,0,.57-.029c.2-.053.411-.1.613-.155s.411-.1.615-.155a.879.879,0,0,0,.495-.22c.131-.158.087-.38.08-.566-.011-.215-.013-.424-.016-.637,0-.451.02-.905.06-1.356a.039.039,0,0,1,.042-.038,11.892,11.892,0,0,0,1.591.018c.3-.016.6-.033.89-.075a.849.849,0,0,0,.6-.34.917.917,0,0,0,.1-.5.041.041,0,0,1,.075-.024,7.126,7.126,0,0,0,.957,1.125c.348.335.743.613,1.11.928a5.388,5.388,0,0,1,.892.974,7.954,7.954,0,0,1,.863,1.54l-.031.075A14.325,14.325,0,0,0,31.3,37.4a14.866,14.866,0,0,0,.317,2.89.041.041,0,0,1-.042.049,20.3,20.3,0,0,0-3.074-.024.2.2,0,0,0-.186.144c-.2,1.014-.4,2.026-.6,3.043-.022.111.053.264.189.246l1.01-.115a.2.2,0,0,0,.189-.249,1.65,1.65,0,0,1,.067-1.363,1.085,1.085,0,0,1,1.032-.546.883.883,0,0,1,.32.091.041.041,0,0,1,0,.069,2.086,2.086,0,0,0-.721,1.076,1.98,1.98,0,0,0-.053.846,6.906,6.906,0,0,1,.224,1.028.152.152,0,0,0,.146.153c.28.007.559.013.839.022a.184.184,0,0,0,.084-.353.216.216,0,0,1-.115-.231,6.814,6.814,0,0,0-.091-.95.369.369,0,0,1,.16-.284,5.639,5.639,0,0,1,.748-.535.04.04,0,0,1,.062.031c.055.6.113,1.205.171,1.809a.817.817,0,0,0,.12.475.457.457,0,0,0,.406.135c.186-.018.368-.047.555-.078a.043.043,0,0,1,.047.051A4.729,4.729,0,0,1,31.18,47.3a11.814,11.814,0,0,1-3.4,1.613,19.3,19.3,0,0,1-3.808.708,31.6,31.6,0,0,1-3.995.12,11.107,11.107,0,0,1-4-.757,6.227,6.227,0,0,1-2.621-2.011,4.618,4.618,0,0,1-.735-1.542,9.932,9.932,0,0,1-.24-2.048,6.078,6.078,0,0,1,.661-3.7c.036-.053.075-.1.115-.155a1.725,1.725,0,0,1,.608-.53.291.291,0,0,1,.28-.007c.1.078.127.251.153.364.084.355.158.715.213,1.076a13.687,13.687,0,0,1,.164,2.153,7.121,7.121,0,0,1-.044,1.043.3.3,0,0,1-.14.244.318.318,0,0,1-.24-.033,1.27,1.27,0,0,1-.471-.411l-.009-.018a.207.207,0,0,0-.069-.089c-.144-.166-.444.022-.315.224.018.029.038.058.06.089l.007.009a2.5,2.5,0,0,0,.67.863,1.11,1.11,0,0,0,.994.18.922.922,0,0,0,.579-.823,9.434,9.434,0,0,0-.082-1.443c-.064-.728-.127-1.454-.189-2.182-.073-.61-.093-1.23-.171-1.842a1.215,1.215,0,0,0-.462-.93,1.688,1.688,0,0,0-1.2-.084,5.781,5.781,0,0,0-1.121.291,5.71,5.71,0,0,0-1.249.608,2.048,2.048,0,0,0-.759.91,4.925,4.925,0,0,0-.271,1.269,9.582,9.582,0,0,0-.064,1.287,11.713,11.713,0,0,0,.331,2.517,21.012,21.012,0,0,0,1.944,4.874c.4.746.8,1.5,1.261,2.208a4.15,4.15,0,0,0,1.742,1.611,14.121,14.121,0,0,0,2.5.732c.9.215,1.813.411,2.728.57a25.662,25.662,0,0,0,5.482.431,14.777,14.777,0,0,0,4.421-.981,22.52,22.52,0,0,0,4.228-2.064c.286-.182.57-.371.85-.57a.189.189,0,0,0,.051-.038,21.117,21.117,0,0,1,1.622-1.5,9.359,9.359,0,0,0,1.478-1.693,9.2,9.2,0,0,0,.715-1.165c.439-.843.93-1.68,1.334-2.552a20.022,20.022,0,0,0,1.094-3.3c.311-1.17.624-2.337.85-3.529a25.077,25.077,0,0,0,.182-7.313c-.255-2.461-.7-4.9-1.1-7.35l-.067-.424,0,0c-.036-.435-.1-.87-.173-1.3a.04.04,0,0,1,.071-.031,7.933,7.933,0,0,1,1.38,1.8,6.184,6.184,0,0,0,.788,1.234c.1-.011.133-.719.126-.819a4.125,4.125,0,0,0-.324-1.851,7.5,7.5,0,0,0-1.154-1.365l-.748-.661a.042.042,0,0,1,.049-.062,5.729,5.729,0,0,1,2.335,1.349c.073.069.606.5.684.439l.009-.024v-.007a4.41,4.41,0,0,0-.4-.948,7.2,7.2,0,0,0-2.257-2.142,6.911,6.911,0,0,1,1.767.584c1.079.555.333-.308.2-.486a11.756,11.756,0,0,0-3.848-2.834c-.568-.284-1-.5-1.3-.664a10.964,10.964,0,0,1,2.566.613,1.474,1.474,0,0,1,.448.175,5.3,5.3,0,0,0,1.363.4c.058-.1-.877-.945-.963-1.008A14.105,14.105,0,0,0,38.6,12.515a7.619,7.619,0,0,0-1.682-.446l-.311-.044-.044-.013a.269.269,0,0,0,.087.007A24.448,24.448,0,0,1,40,12.291c.453.062.575.047,1.025.115a4.8,4.8,0,0,0,1.221.12,8.952,8.952,0,0,0-1.416-.937A19.95,19.95,0,0,0,32.29,9.343c.442-.024,1.238-.069,2.617-.149a14.132,14.132,0,0,1,3.467.524c2.033.553.435-.524.266-.61A10.513,10.513,0,0,0,34.831,7.79a19.58,19.58,0,0,0-3.473-.138,6.021,6.021,0,0,0-.819.109,10.889,10.889,0,0,1,3-.83c.475-.06,2.894-.089,3.373-.087.213,0,2.412-.138-.04-.863a21.216,21.216,0,0,0-5.4-.115,12.128,12.128,0,0,0-3.285.877,14.217,14.217,0,0,1,1.194-.823,46.214,46.214,0,0,1,5.24-2.228c.244-.062,1.687-1.03-.917-.639-.166.022-1.236.286-1.4.331a22.988,22.988,0,0,0-2.61.883c-.69.255-.566.189-1.243.475a18.966,18.966,0,0,0-2.286,1.3c.222-.262.453-.517.7-.759a17.365,17.365,0,0,1,2.952-2.233c.615-.386,1.241-.748,1.866-1.114.193-.109,1.187-1.025-.406-.688a16.893,16.893,0,0,0-3.646,1.478A10.928,10.928,0,0,0,24.2,4.8a3.487,3.487,0,0,1-.8.644,2.378,2.378,0,0,1,.335-.672c.036-.053.171-.189.626-.761a12.948,12.948,0,0,1,2.028-1.962C26.757,1.749,28.046.808,28.1.77,28.355.564,28.941,0,28.417,0Z" transform="translate(-9.379)" fill="none"/>
    </clipPath>
    <clipPath id="clip-path-2">
      <rect id="Rectángulo_1988" data-name="Rectángulo 1988" width="56.154" height="72.025" fill="none"/>
    </clipPath>
  </defs>
  <g id="Grupo_3434" data-name="Grupo 3434" transform="translate(0 0)">
    <g id="Grupo_3428" data-name="Grupo 3428" transform="translate(20.815 0.001)" clip-path="url(#clip-path)">
      <path id="Trazado_7067" data-name="Trazado 7067" d="M9.714,7.6a1.243,1.243,0,0,0,.262.852,2.951,2.951,0,0,0,1.94.823c1.5.211,3.056-.018,4.53.408a3.619,3.619,0,0,1,1.7,1c.473.517.8,1.154,1.321,1.631a2.062,2.062,0,0,0,1.567.564A1.15,1.15,0,0,0,22.111,12a6.312,6.312,0,0,0-.058-1.356c0-.073,0-.146,0-.217a.042.042,0,0,1,.042-.042l.02,0C19.419,6.924,13.66,9.008,9.714,7.6" transform="translate(-8.974 9.268)" fill="#7eac14"/>
      <path id="Trazado_7068" data-name="Trazado 7068" d="M27.637,30.749a.094.094,0,0,1-.087.06h-.226c-.158,0-.273.224-.138.335a.448.448,0,0,1,.029.648.607.607,0,0,1-.353.169.76.76,0,0,1-.213-.009c-.049-.009-.153-.027-.182-.078s0-.153,0-.2l.02-.346c.013-.217.029-.435.044-.652.033-.439.075-.879.122-1.318.051-.479.111-.957.175-1.431l-.016.04.016-.04q.083-.583.18-1.163c.038-.215.073-.431.113-.644a1.728,1.728,0,0,1,.129-.486.558.558,0,0,1,.058-.089.092.092,0,0,1,.155.029c.029.075.051.151.075.229a16.347,16.347,0,0,0-.266-7.961c-.306-.766-1.687-1.225-1.84-2.3-.768-2.916-2.455-6.29-5.675-6.137-.38,0-.652.311-.994.59a.327.327,0,0,0,.047,0l.013,0c.018.375.044.748.078,1.121.067.7.166,1.4.293,2.086a.04.04,0,0,1-.036.049,20.975,20.975,0,0,1-2.506.078.045.045,0,0,1-.04-.031,5.842,5.842,0,0,1-.229-1.218l.007-.027a.187.187,0,0,0,.009-.191.277.277,0,0,1-.029-.089c0-.049,0-.1,0-.144a.2.2,0,0,0-.02-.082l.322-.009a.2.2,0,0,0,.186-.264c0-.149,0-.282,0-.433a.2.2,0,0,0-.186-.255c-.417,0-.837-.011-1.256-.018a.2.2,0,0,0-.189.144,6.32,6.32,0,0,0,.058,2.364,5.277,5.277,0,0,0,.149.557c.044.131.115.164.244.191.109.024.217.047.324.071.2.042.408.087.61.131.1.02.2.042.306.064a1.17,1.17,0,0,1,.26.064c.058.029.062.082.064.142a2.523,2.523,0,0,0,.058.819.039.039,0,0,1-.036.058c-.373.042-.743.1-1.112.175l-.049-.038a1.179,1.179,0,0,0-.22-.692.723.723,0,0,0-.781-.244.524.524,0,0,0-.191.12.418.418,0,0,0-.084.308c-.013.2-.022.4-.024.6q-.007.613.047,1.218c.018.18.266.422.564-.226.957.24.768.191,1.727.431a7.3,7.3,0,0,1-.126,1.076.483.483,0,0,1-.078.249.766.766,0,0,1-.28.109l-.77.253a.2.2,0,0,0-.138.24c.058.209.115.415.175.621.049.178.08.408.26.506a.8.8,0,0,0,.573-.029l.613-.158c.2-.051.408-.1.613-.155a.876.876,0,0,0,.495-.217.8.8,0,0,0,.08-.568c-.009-.213-.013-.424-.016-.637,0-.451.02-.9.06-1.354a.04.04,0,0,1,.042-.038,12.283,12.283,0,0,0,1.591.018,8.5,8.5,0,0,0,.89-.08.828.828,0,0,0,.6-.34.933.933,0,0,0,.1-.5.04.04,0,0,1,.073-.022,7.109,7.109,0,0,0,.957,1.123c.351.335.743.615,1.112.93a5.3,5.3,0,0,1,.89.974,7.714,7.714,0,0,1,.863,1.54l-.031.075a14.393,14.393,0,0,0-1.01,5.517A14.847,14.847,0,0,0,25,28.84a.04.04,0,0,1-.042.049,19.987,19.987,0,0,0-3.072-.024.2.2,0,0,0-.189.144q-.3,1.521-.6,3.043c-.022.109.053.262.189.246l1.01-.115c.115-.013.237-.118.189-.249a1.65,1.65,0,0,1,.067-1.363,1.082,1.082,0,0,1,1.034-.546.869.869,0,0,1,.317.089.042.042,0,0,1,0,.071,2.1,2.1,0,0,0-.721,1.076,2.014,2.014,0,0,0-.053.846,6.534,6.534,0,0,1,.226,1.028.15.15,0,0,0,.146.151l.839.024a.184.184,0,0,0,.084-.353.217.217,0,0,1-.118-.231,6.439,6.439,0,0,0-.089-.95.366.366,0,0,1,.16-.284,5.476,5.476,0,0,1,.746-.535.04.04,0,0,1,.062.031c.058.6.113,1.205.171,1.809a.819.819,0,0,0,.122.475.46.46,0,0,0,.4.133c.186-.018.371-.044.555-.075a.04.04,0,0,1,.047.051c-.027.1-.06.193-.1.289,1.511.022,1.227-1.64,1.321-3.038a.549.549,0,0,1-.042.058.21.21,0,0,0-.038.06" transform="translate(-2.76 11.457)" fill="#7eac14"/>
      <path id="Trazado_7069" data-name="Trazado 7069" d="M19.966,6.464c-1.38-.921-1.534,1.687-1.84,2.608-.462,1.074-2.3.768-2.61,2.148,1.227,0,2.61.153,3.682-.615,1.227-.919,2.148-3.067.768-4.141" transform="translate(-1.895 7.645)" fill="#64b42a"/>
      <path id="Trazado_7070" data-name="Trazado 7070" d="M24.886,22.445c-1.7,3.82-1.96,7.248-2.712,11.248a12.589,12.589,0,0,0,.894-1.125,9.364,9.364,0,0,0,.715-1.165c.439-.846.93-1.682,1.334-2.552a20.091,20.091,0,0,0,1.094-3.3c.311-1.17.624-2.339.848-3.529a25.235,25.235,0,0,0,.186-7.313q-.117-1.085-.271-2.168A19.588,19.588,0,0,0,25.192,16c-.919,2.148.615,4.6-.306,6.443" transform="translate(6.223 15.286)" fill="#64b42a"/>
      <path id="Trazado_7071" data-name="Trazado 7071" d="M15.165,2.693c-.306,0-.459.153-.306.306,8.283,2.916,15.8,8.9,19.02,17.18-1.072-9.2-9.816-16.718-18.714-17.486" transform="translate(-2.769 3.284)" fill="#64b42a"/>
      <path id="Trazado_7072" data-name="Trazado 7072" d="M28.006,22.242c-1.227,1.38-.768,4.6-2.914,4.756-3.908.308-7.954-.14-11.767.546.8.186,1.6.355,2.4.495a25.519,25.519,0,0,0,5.482.431,14.843,14.843,0,0,0,4.421-.979,22.444,22.444,0,0,0,4.226-2.066c.291-.182.573-.371.852-.568a.251.251,0,0,0,.051-.038,20.712,20.712,0,0,1,1.622-1.5c.169-.146.326-.3.479-.462a3.45,3.45,0,0,0-4.854-.617" transform="translate(-4.567 26.226)" fill="#7eac14"/>
      <path id="Trazado_7073" data-name="Trazado 7073" d="M25.541,8.218a1.487,1.487,0,0,1,.451.175,5.188,5.188,0,0,0,1.363.4c.058-.1-.877-.945-.963-1.008A14.225,14.225,0,0,0,22.7,5.693c-.093-.036-.189-.069-.282-.1.5.748,1.052,1.463,1.607,2.184a14.418,14.418,0,0,1,1.516.442" transform="translate(6.521 6.82)" fill="#64b42a"/>
      <path id="Trazado_7074" data-name="Trazado 7074" d="M24.578,3.687c.213,0,2.412-.14-.038-.863a20.257,20.257,0,0,0-5.047-.151,12.721,12.721,0,0,1,1.989,1.076c.8-.044,2.677-.064,3.1-.062" transform="translate(2.954 3.16)" fill="#64b42a"/>
      <path id="Trazado_7075" data-name="Trazado 7075" d="M21.393,2.4c.615-.384,1.241-.746,1.866-1.11.193-.111,1.187-1.03-.406-.69a17.113,17.113,0,0,0-3.646,1.476,13.81,13.81,0,0,0-2.921,1.618,28.338,28.338,0,0,1,2.865.3,19.906,19.906,0,0,1,2.242-1.6" transform="translate(-0.956 0.642)" fill="#7eac14"/>
      <path id="Trazado_7076" data-name="Trazado 7076" d="M25.314,12.691c.091-.013.131-.719.126-.819a4.167,4.167,0,0,0-.326-1.853,5.165,5.165,0,0,0-.619-.812,21.273,21.273,0,0,1,.411,2.927c.175.291.357.566.408.557" transform="translate(9.053 11.227)" fill="#64b42a"/>
      <path id="Trazado_7077" data-name="Trazado 7077" d="M24.189,2.066c.244-.062,1.687-1.03-.914-.641-.169.024-1.238.289-1.4.333a22.7,22.7,0,0,0-2.61.883c-.69.255-.566.189-1.243.475-.027.011-.058.027-.087.04a18.7,18.7,0,0,1,2.155.557c1.574-.71,3.964-1.611,4.1-1.647" transform="translate(1.052 1.625)" fill="#7eac14"/>
      <path id="Trazado_7078" data-name="Trazado 7078" d="M27.287,11.622a7.2,7.2,0,0,0-2.253-2.139,6.924,6.924,0,0,1,1.764.584c1.079.555.333-.308.2-.486a11.464,11.464,0,0,0-3.646-2.736q.286.376.566.759a10.94,10.94,0,0,1,1.758,3.622,5.226,5.226,0,0,1,1.323.939c.071.064.606.5.684.435a3.414,3.414,0,0,0-.391-.977" transform="translate(7.655 8.345)" fill="#7eac14"/>
      <path id="Trazado_7079" data-name="Trazado 7079" d="M41.573,18.527a7.93,7.93,0,0,1,1.38,1.807c.02.047.2.375.382.677a21.305,21.305,0,0,0-.411-2.923,7.448,7.448,0,0,0-.533-.553l-.748-.664a.042.042,0,0,1,.049-.062,8.771,8.771,0,0,1,1.012.411A10.982,10.982,0,0,0,40.948,13.6c-.186-.255-.375-.508-.568-.757-.067-.033-.135-.069-.2-.1-.566-.28-1-.5-1.3-.664a9.065,9.065,0,0,1,1.048.169c-.555-.717-1.11-1.431-1.607-2.179a7.444,7.444,0,0,0-1.4-.346l-.313-.044-.044-.011a.57.57,0,0,0,.089.007c.462-.007.952.018,1.447.058-.244-.386-.473-.781-.679-1.19-.149-.282-.311-.546-.475-.8A16.146,16.146,0,0,0,32.288,7c.442-.027,1.241-.069,2.617-.153a7.631,7.631,0,0,1,1.487.109,10.911,10.911,0,0,0-1.409-1.5c-.051-.007-.1-.013-.153-.016A19.787,19.787,0,0,0,31.356,5.3a6.071,6.071,0,0,0-.819.109,10.993,10.993,0,0,1,3-.832c.062-.007.158-.011.28-.018a12.469,12.469,0,0,0-1.989-1.079c-.133.011-.253.024-.355.038a11.919,11.919,0,0,0-3.285.872,14.388,14.388,0,0,1,1.194-.826,10.021,10.021,0,0,1,1.139-.577,18.181,18.181,0,0,0-2.157-.557,20.087,20.087,0,0,0-2.2,1.256c.222-.262.453-.519.7-.759.229-.224.468-.435.712-.641a27.819,27.819,0,0,0-2.867-.3,4.947,4.947,0,0,0-.508.459,3.463,3.463,0,0,1-.8.644,2.393,2.393,0,0,1,.337-.672c.027-.044.118-.138.384-.462-.925-.038-1.851-.04-2.768-.024-.357.308-.71.626-1.054.95s-.672.655-1,.992c-.1.1-.2.209-.3.317-.06.062-.12.129-.182.186a.706.706,0,0,1-.351.2,1.321,1.321,0,0,0-.619.127,1.6,1.6,0,0,0-.388.313,4.039,4.039,0,0,1-.65.695c-.344.224-.735.053-1.1-.038a1.5,1.5,0,0,0-.695-.031,1.19,1.19,0,0,0-.517.266c-.717.586-.679,1.558-.961,2.359a1.85,1.85,0,0,1-.3.533,6.594,6.594,0,0,1-1.529,1.19,11.651,11.651,0,0,0-1.165.945,4.574,4.574,0,0,0-.9,1.032A1.662,1.662,0,0,0,9.417,13.2a1.307,1.307,0,0,0,.7.87l.007.007a1,1,0,0,0,.107.036,1.026,1.026,0,0,0-.111.406c3.948,1.409,9.705-.679,12.4,2.783a1.131,1.131,0,0,1,.877.462c.273.377,1.269,1.349,1.989,1.332.342-.277.617-.59.994-.59,3.22-.151,4.909,3.222,5.675,6.139.153,1.072,1.534,1.534,1.842,2.3a16.392,16.392,0,0,1,.266,7.959,7.86,7.86,0,0,1,.368,1.689,15.446,15.446,0,0,1,.042,2.266,1.618,1.618,0,0,1-.235.879c-.091,1.4.191,3.063-1.321,3.038a4.945,4.945,0,0,1-1.835,2.179,11.787,11.787,0,0,1-3.4,1.613,19.116,19.116,0,0,1-3.806.708c-.71.064-1.427.107-2.144.124a1.785,1.785,0,0,1-.817.712c-2.3,1.074-4.6-.459-6.6-1.38a3.493,3.493,0,0,1-1.38-1.225,7.727,7.727,0,0,1-1.689-7.672C11.8,36.3,13.49,35.074,14.564,36.3c1.223,1.529.16,3.822.61,5.963a.969.969,0,0,0,.422-.748,9.162,9.162,0,0,0-.082-1.44c-.062-.728-.124-1.454-.189-2.182-.073-.61-.093-1.232-.171-1.842a1.224,1.224,0,0,0-.459-.932,1.705,1.705,0,0,0-1.2-.082,5.939,5.939,0,0,0-1.121.289,5.8,5.8,0,0,0-1.247.61,2.022,2.022,0,0,0-.759.91,5.026,5.026,0,0,0-.273,1.267A9.632,9.632,0,0,0,10.03,39.4a11.734,11.734,0,0,0,.333,2.517,20.914,20.914,0,0,0,1.944,4.874c.4.746.8,1.5,1.261,2.208a4.169,4.169,0,0,0,1.742,1.613,14.241,14.241,0,0,0,2.5.728c.107.027.217.051.326.078,3.813-.688,7.859-.24,11.765-.548,2.148-.153,1.689-3.376,2.916-4.756a3.454,3.454,0,0,1,4.854.617l.1-.107c.752-4,1.016-7.428,2.714-11.248.919-1.84-.615-4.292.306-6.443a19.481,19.481,0,0,1,1.78-3.464c-.244-1.733-.546-3.456-.828-5.182l-.069-.428v0c-.038-.437-.1-.87-.175-1.3a.041.041,0,0,1,.071-.033M26.682,15.9c-1.074.77-2.455.617-3.682.617.306-1.38,2.148-1.076,2.608-2.151.308-.921.462-3.529,1.842-2.606,1.38,1.072.459,3.222-.768,4.139M21.466,3.935c-.153-.151,0-.3.306-.3,8.9.763,17.642,8.283,18.716,17.486C37.266,12.832,29.749,6.851,21.466,3.935" transform="translate(-9.379 2.348)" fill="#9dd036"/>
      <path id="Trazado_7080" data-name="Trazado 7080" d="M17.54,4.308c.069-.084.149-.182.242-.3a13.137,13.137,0,0,1,2.028-1.96c.366-.3,1.656-1.236,1.707-1.278.348-.277,1.309-1.221-.748-.506-.036.011-.61.3-.617.3a27.726,27.726,0,0,0-4.277,2.814q-.563.439-1.1.905c.914-.018,1.84-.013,2.765.024" transform="translate(-2.799 0)" fill="#64b42a"/>
      <path id="Trazado_7081" data-name="Trazado 7081" d="M22.955,6.536c.648.053,1.3.133,1.9.215.451.062.575.044,1.025.113a4.689,4.689,0,0,0,1.221.12,9.269,9.269,0,0,0-1.416-.937,26.006,26.006,0,0,0-3.882-1.5c.166.255.326.519.477.8a13.411,13.411,0,0,0,.679,1.192" transform="translate(5.766 5.542)" fill="#7eac14"/>
      <path id="Trazado_7082" data-name="Trazado 7082" d="M22.324,5.013c.877.135,1.722.351,1.982.419,2.033.55.433-.524.266-.613a10.9,10.9,0,0,0-3.657-1.3,10.646,10.646,0,0,1,1.409,1.5" transform="translate(4.688 4.288)" fill="#7eac14"/>
      <path id="Trazado_7083" data-name="Trazado 7083" d="M13.678,17.69c-1.074-1.227-2.761,0-3.222,1.534a7.721,7.721,0,0,0,1.689,7.67,3.5,3.5,0,0,0,1.38,1.227c1.993.921,4.294,2.455,6.6,1.38a1.8,1.8,0,0,0,.819-.71c-.619.016-1.238.016-1.855,0a11.175,11.175,0,0,1-4-.759,6.22,6.22,0,0,1-2.619-2.011,4.6,4.6,0,0,1-.735-1.542,9.932,9.932,0,0,1-.24-2.048,6.062,6.062,0,0,1,.661-3.7c.036-.053.075-.1.115-.153a1.751,1.751,0,0,1,.608-.533.3.3,0,0,1,.28-.007c.1.075.127.251.153.366.084.355.155.712.213,1.074a13.95,13.95,0,0,1,.164,2.151,7.492,7.492,0,0,1-.044,1.048.3.3,0,0,1-.14.242.318.318,0,0,1-.24-.033,1.267,1.267,0,0,1-.471-.411l-.011-.018a.214.214,0,0,0-.064-.089c-.146-.166-.448.022-.317.224.018.029.038.058.06.089l0,.009a2.563,2.563,0,0,0,.672.866,1.1,1.1,0,0,0,.992.178.744.744,0,0,0,.158-.078c-.451-2.142.613-4.434-.61-5.963" transform="translate(-8.493 20.96)" fill="#7eac14"/>
      <path id="Trazado_7084" data-name="Trazado 7084" d="M12.993,22.221c.009,1.356.262,2.364.3,3.234.033.823-.4,1.043.175,1.669.124.135,1.285.031,1.15-.12-.553-.6-.506-1.8-.537-2.6-.033-.843-.77-1.445-.544-2.257.053-.184-.488-.109-.539.071" transform="translate(-4.972 26.879)" fill="#42b1ad"/>
      <path id="Trazado_7085" data-name="Trazado 7085" d="M13.732,22.322c-.415,1.722.715,3.349.588,5.147-.018.251.646.062.542-.144-.783-1.56-.144-2.477-.584-5.049-.042-.253-.49-.182-.546.047" transform="translate(-4.183 26.967)" fill="#42b1ad"/>
      <path id="Trazado_7086" data-name="Trazado 7086" d="M21.941,27.478c-.32-1.178-1.764-2.475-2.47-3.471a7.317,7.317,0,0,0-.945-1.232A2.3,2.3,0,0,0,17,21.87c-.091,0-.3.04-.324.151s.146.127.222.127a1.669,1.669,0,0,1,.917.417c.2.182.648.848.837,1.045a4.586,4.586,0,0,1,.666.9,8.985,8.985,0,0,1,1.656,2.652c.049.186.333.468.289.3Z" transform="translate(-0.481 26.667)" fill="#42b1ad"/>
      <path id="Trazado_7087" data-name="Trazado 7087" d="M17.714,21.594a11.862,11.862,0,0,1,2.1,1.569A8.384,8.384,0,0,1,21.4,24.355a4.765,4.765,0,0,1,1.227,2.985.656.656,0,0,1-.082.375c-.02.038-.122.184-.14.062-.169-1.234-.983-1.249-1.822-2.173a32.171,32.171,0,0,0-2.739-2.788c-.542-.368.34-.486-.291-.688-.115-.038.049-.573.164-.535" transform="translate(0.537 26.328)" fill="#42b1ad"/>
      <path id="Trazado_7088" data-name="Trazado 7088" d="M10.416,22.263c.686-.069.657-.952,1.136-1.261a1.407,1.407,0,0,1,.854-.115,5.822,5.822,0,0,0,1.041-.009c.073-.009.3-.06.315-.153s-.169-.069-.217-.062a10.016,10.016,0,0,1-1.154-.02,4.549,4.549,0,0,0-1.582.209c-.595.322-.375,1.03-.886,1.443-.1.082.087.1.131.1a.644.644,0,0,0,.362-.133" transform="translate(-8.749 25.171)" fill="#42b1ad"/>
      <path id="Trazado_7089" data-name="Trazado 7089" d="M10.231,21.234a2.985,2.985,0,0,1,2.574-.577.643.643,0,0,0,.377-.073c.044-.02.186-.1.069-.127a3.083,3.083,0,0,0-3.507.826c-.093.082.084.08.124.078a.711.711,0,0,0,.362-.127" transform="translate(-8.965 24.673)" fill="#42b1ad"/>
      <path id="Trazado_7090" data-name="Trazado 7090" d="M11.408,19.088c.282-.431,1.132-.213,1.347-.735a2.462,2.462,0,0,0-.138-1.249.761.761,0,0,0-.575-.468.531.531,0,0,0-.384.1c-.087.071-.062.138.044.16.189.038.644.175.7.348a.969.969,0,0,1,0,.71,2.366,2.366,0,0,1-1.087.948c-.06.024-.178.113-.1.2s.124.018.2-.013" transform="translate(-7.171 20.277)" fill="#42b1ad"/>
      <path id="Trazado_7091" data-name="Trazado 7091" d="M11.665,19.17a4.914,4.914,0,0,0,1.36-.85,1.327,1.327,0,0,0,.586-1.081c0-.118-.548-.022-.539.146.018.408.133.453-.166.717-.324.282-1.09-.135-1.436.914-.016.049-.231.1-.155.173s.277.009.351-.02" transform="translate(-7.037 20.958)" fill="#42b1ad"/>
      <path id="Trazado_7092" data-name="Trazado 7092" d="M15.6,11.424c.12-.628.832-.739,1.321-.979a3.765,3.765,0,0,0,1.19-.921,3.63,3.63,0,0,0,.719-1.283,3.74,3.74,0,0,0,.289-1.4c0-.5-.584-.961-.575-.766a8.107,8.107,0,0,1-.273,2.308,3.43,3.43,0,0,1-.81,1.309,3.841,3.841,0,0,1-1.352.812c-.451.189-.5.3-.6.823-.036.186.062.269.1.1" transform="translate(-1.914 7.349)" fill="#42b1ad"/>
      <path id="Trazado_7093" data-name="Trazado 7093" d="M12.407,19.806c-.02-.242-.22-.38-.415-.493a.724.724,0,0,0-.81.033.464.464,0,0,0-.109.373,2.006,2.006,0,0,0,.038.415,5.338,5.338,0,0,1,.127.834c0,.04.042.06.1.067a.941.941,0,0,0,.089.375.214.214,0,0,0,.178.109,1.765,1.765,0,0,1,.1-.748c.036-.073.131-.033.2-.071.049-.024.122-.058.12-.149a.636.636,0,0,0-.031-.158c-.042-.217-.1-.273-.051-.486.024-.118.2-.067.18.049s.122.273.12.388c0,.082.135.246.153.326.022.109-.047.158-.1.246-.089.144-.431.186-.471.351a1.579,1.579,0,0,0-.036.235l.016,0c1.534.28.783-.277.908-.619.166-.453-.264-.593-.306-1.074" transform="translate(-7.313 23.418)" fill="#42b1ad"/>
      <path id="Trazado_7094" data-name="Trazado 7094" d="M19.694,15.367a19.738,19.738,0,0,0,3.369-.533,15,15,0,0,0,3.274-1.5c.078-.038.215-.127.142-.226s-.515.222-.6.26c-.5.233-.77.2-1.274.431a6.307,6.307,0,0,1-1.536.535,16.752,16.752,0,0,1-3.251.089c-.606-.013-.557.226-.613.342s-.04.357.067.355Z" transform="translate(2.569 15.968)" fill="#42b1ad"/>
      <path id="Trazado_7095" data-name="Trazado 7095" d="M18.5,14.011a4,4,0,0,1,.981-.348,4.515,4.515,0,0,0,1-.488,1.379,1.379,0,0,1,.451-.206,1.136,1.136,0,0,1,.621-.062,3.919,3.919,0,0,0,2.912-.637c.089-.075.568-.388.466-.415s-.371.1-.843.444a3.047,3.047,0,0,1-1.565.284,4.484,4.484,0,0,1-.843-.062,2.393,2.393,0,0,0-.724-.009,2.61,2.61,0,0,0-.737.209,1.693,1.693,0,0,1-.706.1,2.7,2.7,0,0,0-1.467.706c-.087.075-.06.135.042.162s.182-.036.266-.111Z" transform="translate(1.127 14.45)" fill="#42b1ad"/>
      <path id="Trazado_7096" data-name="Trazado 7096" d="M19.3,14.038c.013-.06.118-.084.155-.133.027-.033-.018-.191-.007-.193.1-.024.348-.182.477-.2a7.36,7.36,0,0,0,.97-.082c.344-.1.548-.282.57-.4s-.32.193-.608.249c-.417.08-1.107-.051-1.525.016-.391.062-.4.14-.508.579l0,.007a.222.222,0,0,0,.322.237Z" transform="translate(2.13 15.857)" fill="#42b1ad"/>
      <path id="Trazado_7097" data-name="Trazado 7097" d="M12.028,4.7a.349.349,0,0,1,.02-.075l.082.118a.237.237,0,0,0-.1-.042c-.007.055.024.082.122.122a.755.755,0,0,0,.455.016.636.636,0,0,0,.289-.146c.082-.084.1-.109.1-.211,0-.051.069-.093.036-.138a.5.5,0,0,0-.3-.151.982.982,0,0,0-.3-.024.633.633,0,0,0-.373.155.316.316,0,0,0-.1.306.106.106,0,0,0,.082.071" transform="translate(-6.259 5.078)" fill="#7b8512"/>
      <path id="Trazado_7098" data-name="Trazado 7098" d="M12,4.372a.378.378,0,0,0-.022.075.242.242,0,0,1,.1.04Z" transform="translate(-6.209 5.331)" fill="#7b8512"/>
      <path id="Trazado_7099" data-name="Trazado 7099" d="M12.093,4.773a1.3,1.3,0,0,0,.49.029h.009l.029,0,.049-.013.04-.018.044-.022a.262.262,0,0,0,.053-.038,1.119,1.119,0,0,0,.149-.118.5.5,0,0,0,.166-.2.1.1,0,0,0-.031-.111.268.268,0,0,0-.182-.024.98.98,0,0,0-.322.124l-.011.007-.018,0-.058.007c-.073.007-.149.007-.222.018a.639.639,0,0,0-.213.073.245.245,0,0,0-.133.158c-.007.073.1.111.16.131m.484-.388h0m-.007,0h0" transform="translate(-6.264 5.178)" fill="#7b8512"/>
      <path id="Trazado_7100" data-name="Trazado 7100" d="M9.747,9.338a7.758,7.758,0,0,0,1.933-.217,13.547,13.547,0,0,0,1.9-.661A9.481,9.481,0,0,0,15.2,7.39,15.039,15.039,0,0,0,16.9,6.083c.091-.089-.2-.1-.3-.14a.871.871,0,0,0-.566.184,8.529,8.529,0,0,1-1.185.965A10.926,10.926,0,0,1,13.44,8.26a11.547,11.547,0,0,1-1.673.577,5.256,5.256,0,0,1-1.607.3,1.07,1.07,0,0,0-.4.02s-.122.142-.107.162.093.024.093.024" transform="translate(-9.045 7.236)" fill="#7b8512"/>
      <path id="Trazado_7101" data-name="Trazado 7101" d="M18.181,12.471l.075.087c-.024-.029-.047-.06-.071-.089l0,0" transform="translate(1.354 15.204)" fill="#484342"/>
    </g>
    <g id="Grupo_3430" data-name="Grupo 3430" transform="translate(0 0)" clip-path="url(#clip-path-2)">
      <path id="Trazado_7103" data-name="Trazado 7103" d="M10.584,22.052a8.74,8.74,0,0,1,.462,1.236,8.883,8.883,0,0,1,.269,1.276,10.167,10.167,0,0,1-2.009.539,13.667,13.667,0,0,1-1.92.127,8.065,8.065,0,0,1-3.2-.59,6.369,6.369,0,0,1-2.308-1.651,7.03,7.03,0,0,1-1.4-2.526A10.226,10.226,0,0,1,0,17.287,10,10,0,0,1,.493,14.1a7.432,7.432,0,0,1,1.429-2.541,6.424,6.424,0,0,1,2.3-1.676,7.631,7.631,0,0,1,3.1-.6,13.242,13.242,0,0,1,1.9.127,8.53,8.53,0,0,1,1.878.539,4.7,4.7,0,0,1-.257,1.256c-.142.408-.3.817-.473,1.232a9.454,9.454,0,0,0-1.329-.362,7.719,7.719,0,0,0-1.376-.109A3.874,3.874,0,0,0,4.5,13.306a6.141,6.141,0,0,0-1.105,3.982q0,5.24,4.445,5.24a7.872,7.872,0,0,0,1.4-.109,9.071,9.071,0,0,0,1.352-.366" transform="translate(0 11.317)" fill="#051619"/>
      <path id="Trazado_7104" data-name="Trazado 7104" d="M10.446,9.466c.3-.042.588-.075.859-.1s.573-.033.9-.033q.429,0,.839.033c.271.02.573.053.9.1L18.777,24.9a12.116,12.116,0,0,1-1.718.131A9.821,9.821,0,0,1,15.47,24.9l-.859-3.094H9.5L8.621,24.9a9.2,9.2,0,0,1-1.483.131A9.714,9.714,0,0,1,5.572,24.9Zm3.436,9.747L12.1,12.73,10.23,19.213Z" transform="translate(6.794 11.386)" fill="#051619"/>
      <path id="Trazado_7105" data-name="Trazado 7105" d="M1.31,17.375c.6-.071,1.232-.133,1.889-.182s1.389-.075,2.191-.075q4.058,0,6.172,2.017t2.115,6.054q0,4.058-2.146,5.968T5.154,33.068q-1.1,0-2.02-.075c-.615-.049-1.223-.111-1.824-.182ZM4.466,30.321c.129.013.293.029.495.042s.442.022.73.022a7.079,7.079,0,0,0,1.833-.226A3.277,3.277,0,0,0,9,29.333a4.16,4.16,0,0,0,.988-1.609,7.755,7.755,0,0,0,.366-2.6,7.786,7.786,0,0,0-.366-2.577A4.156,4.156,0,0,0,9,20.918a3.5,3.5,0,0,0-1.427-.848,5.8,5.8,0,0,0-1.707-.246c-.2,0-.433,0-.7.009s-.5.027-.7.053Z" transform="translate(1.597 20.874)" fill="#051619"/>
      <path id="Trazado_7106" data-name="Trazado 7106" d="M8.053,17.3a9.708,9.708,0,0,1,1.567-.129,10.106,10.106,0,0,1,1.589.129V32.74a9.98,9.98,0,0,1-1.567.129,9.836,9.836,0,0,1-1.589-.129Z" transform="translate(9.819 20.945)" fill="#051619"/>
      <path id="Trazado_7107" data-name="Trazado 7107" d="M7.159,25.132c.269-.042.535-.071.792-.087s.524-.02.795-.02c.244,0,.493.007.755.02s.519.044.79.087v8.007a21.487,21.487,0,0,0,.1,2.244,4.733,4.733,0,0,0,.384,1.547,1.922,1.922,0,0,0,.817.9,2.811,2.811,0,0,0,1.365.291,2.735,2.735,0,0,0,1.349-.291,1.952,1.952,0,0,0,.808-.9,4.845,4.845,0,0,0,.386-1.547c.062-.621.1-1.369.1-2.244V25.132c.286-.042.559-.071.817-.087s.506-.02.752-.02.519.007.781.02.533.044.806.087V33.8a14.682,14.682,0,0,1-.257,2.867,5.626,5.626,0,0,1-.921,2.222,4.366,4.366,0,0,1-1.784,1.427,6.92,6.92,0,0,1-2.832.5,6.928,6.928,0,0,1-2.836-.5,4.373,4.373,0,0,1-1.782-1.427,5.628,5.628,0,0,1-.923-2.222A14.863,14.863,0,0,1,7.159,33.8Z" transform="translate(8.729 30.515)" fill="#051619"/>
      <path id="Trazado_7108" data-name="Trazado 7108" d="M13.688,25.073h8.76a6.6,6.6,0,0,1,.129,1.309,6.813,6.813,0,0,1-.129,1.352H16.822v3.351h4.465a7.152,7.152,0,0,1,.131,1.329,7.052,7.052,0,0,1-.131,1.354H16.822v4.079H22.6a6.769,6.769,0,0,1,.129,1.309,6.983,6.983,0,0,1-.129,1.352H13.688Z" transform="translate(16.69 30.574)" fill="#051619"/>
      <path id="Trazado_7109" data-name="Trazado 7109" d="M12.246,38.644a7.192,7.192,0,0,0,1.212-2.512,11.979,11.979,0,0,0,.4-3.167,12.234,12.234,0,0,0-.4-3.189,7.308,7.308,0,0,0-1.212-2.543,5.558,5.558,0,0,0-2.084-1.673,6.933,6.933,0,0,0-3.005-.6,6.933,6.933,0,0,0-3.005.6,5.558,5.558,0,0,0-2.084,1.673A7.308,7.308,0,0,0,.856,29.775a12.234,12.234,0,0,0-.4,3.189,11.979,11.979,0,0,0,.4,3.167,7.192,7.192,0,0,0,1.212,2.512,5.6,5.6,0,0,0,2.084,1.662,6.933,6.933,0,0,0,3.005.6,8.666,8.666,0,0,0,1.2-.08l4.743.766a5.8,5.8,0,0,0,.344-1.236q.107-.652.149-1.276l-1.516-.235c.058-.067.113-.133.166-.2M3.808,32.964q0-5.323,3.371-5.324a2.717,2.717,0,0,1,2.5,1.332,7.889,7.889,0,0,1,.8,3.993q0,5.326-3.327,5.324-3.349,0-3.349-5.324" transform="translate(0.56 30.432)" fill="#051619"/>
      <path id="Trazado_7110" data-name="Trazado 7110" d="M17.924,11.086c-.036.007-.073.011-.109.016a1.874,1.874,0,0,1-.193.009,2.337,2.337,0,0,1-1.551-.633,5.856,5.856,0,0,1-.788-.948c-.062-.082-.122-.162-.18-.244-.34.013-.664.033-.965.06q-.826.077-1.764.182V24.966c.284.042.561.071.832.084s.528.022.77.022.493-.011.75-.031.513-.047.77-.075V11.934a5.034,5.034,0,0,1,.854-.064,3.293,3.293,0,0,1,1.529.333,6.721,6.721,0,0,1,.044-1.116" transform="translate(15.087 11.324)" fill="#051619"/>
    </g>
  </g>
</svg>
